# xmcd
# 
# Track frame offsets:
#     150
#     4537
#     20615
#     44296
#     64167
#     87816
#     114694
#     133816
#     148909
#     163421
#     188036
#     211362
# 
# Disc length: 3087
# 
# Revision: 3
# Processed by: cddbd v1.5.2PL0 Copyright (c) Steve Scherf et al.
# Submitted via: fre:ac v1.0.17
# 
DISCID=ad0c0d0c
DTITLE=Red - End Of Silence (Deluxe Edition)
DYEAR=2006
DGENRE=Rock
TTITLE0=Intro (End Of Silence)
TTITLE1=Breathe into me
TTITLE2=Let go
TTITLE3=Already over
TTITLE4=Lost
TTITLE5=Pieces
TTITLE6=Break me down
TTITLE7=Wasting time
TTITLE8=Gave it all away
TTITLE9=Hide
TTITLE10=Already over, part. 2
TTITLE11=Lost (Acoustic)
EXTD=
EXTT0=
EXTT1=
EXTT2=
EXTT3=
EXTT4=
EXTT5=
EXTT6=
EXTT7=
EXTT8=
EXTT9=
EXTT10=
EXTT11=
PLAYORDER=
